<svg id="visual" viewBox="0 0 960 540" width="960" height="540" xmlns="http://www.w3.org/2000/svg" xmlns:xlink="http://www.w3.org/1999/xlink" version="1.1">
  <rect x="0" y="0" width="960" height="540" fill="transparent"></rect>
  <defs>
    <linearGradient id="grad1_0" x1="43.8%" y1="100%" x2="100%" y2="0%">
      <stop offset="14.444444444444446%" stop-color="transparent" stop-opacity="1"></stop>
      <stop offset="85.55555555555554%" stop-color="transparent" stop-opacity="1"></stop>
    </linearGradient>
  </defs>
  <defs>
    <linearGradient id="grad2_0" x1="0%" y1="100%" x2="56.3%" y2="0%">
      <stop offset="14.444444444444446%" stop-color="transparent" stop-opacity="1"></stop>
      <stop offset="85.55555555555554%" stop-color="transparent" stop-opacity="1"></stop>
    </linearGradient>
  </defs>
  <g transform="translate(960, 540)">
    <path d="M-324 0C-287.9 -21 -251.9 -42 -240.5 -64.4C-229.2 -86.9 -242.6 -110.9 -248.5 -143.5C-254.5 -176.1 -253 -217.2 -229.1 -229.1C-205.2 -241 -158.8 -223.7 -130 -225.2C-101.2 -226.7 -90.2 -247 -71.4 -266.6C-52.7 -286.2 -26.4 -305.1 0 -324L0 0Z" fill="#4B0082"></path>
  </g>
  <g transform="translate(0, 0)">
    <path d="M324 0C293.2 21.7 262.4 43.4 252.1 67.6C241.8 91.7 252.1 118.3 252.9 146C253.7 173.7 245 202.4 229.1 229.1C213.2 255.9 190.2 280.7 160.5 278C130.8 275.3 94.4 245.2 66.5 248.2C38.7 251.3 19.3 287.7 0 324L0 0Z" fill="#4B0082"></path>
  </g>
</svg>
